<svg xmlns="http://www.w3.org/2000/svg" viewBox="0 0 1200 630" width="1200" height="630" role="img">
<title>Élément sécurisé — PassPass</title>
<defs><linearGradient id="g" x1="0" y1="0" x2="1" y2="1">
<stop offset="0" stop-color="#11151c"/><stop offset="1" stop-color="#0a0c10"/></linearGradient></defs>
<rect width="1200" height="630" fill="url(#g)"/>
<rect x="1" y="1" width="1198" height="628" fill="none" stroke="#232b38" stroke-width="2"/>
<rect x="480" y="200" width="240" height="240" rx="20" fill="none" stroke="#22d3ee" stroke-width="3"/><rect x="540" y="260" width="120" height="120" rx="10" fill="none" stroke="#4ade80" stroke-width="3"/><g stroke="#4ade80" stroke-width="4" stroke-linecap="round" opacity=".7"><path d="M525 200 v-38"/><path d="M525 440 v38"/><path d="M480 245 h-38"/><path d="M720 245 h38"/><path d="M580 200 v-38"/><path d="M580 440 v38"/><path d="M480 300 h-38"/><path d="M720 300 h38"/><path d="M635 200 v-38"/><path d="M635 440 v38"/><path d="M480 355 h-38"/><path d="M720 355 h38"/><path d="M690 200 v-38"/><path d="M690 440 v38"/><path d="M480 410 h-38"/><path d="M720 410 h38"/></g>
<text x="80" y="545" fill="#e8ecf3" font-family="Inter,Helvetica,Arial,sans-serif" font-size="46" font-weight="700">Élément sécurisé</text>
<text x="80" y="588" fill="#9aa6b8" font-family="Inter,Helvetica,Arial,sans-serif" font-size="26">Architecture ouverte</text>
<text x="1120" y="80" fill="#4ade80" font-family="ui-monospace,Menlo,monospace" font-size="24" text-anchor="end" letter-spacing="3">PASSPASS</text>
</svg>